<svg width="163" height="32" viewBox="0 0 163 32" fill="none" xmlns="http://www.w3.org/2000/svg">
<path d="M14.8845 8.69606C14.5753 6.04633 14.2488 3.24863 14.2488 0H17.1659C17.1659 3.21214 16.8409 6.00629 16.5321 8.65899C16.2806 10.8208 16.04 12.8887 15.9953 15.0123C17.46 13.4845 18.7412 11.8645 20.0834 10.1676C21.7383 8.07538 23.4859 5.86626 25.7828 3.56921L27.8455 5.6319C25.5742 7.90323 23.3684 9.6491 21.2743 11.3066L21.2724 11.3081C19.5667 12.6584 17.935 13.95 16.4024 15.4194C18.5182 15.3747 20.5696 15.1354 22.7185 14.8846C25.3682 14.5753 28.1661 14.2488 31.4147 14.2488V17.1659C28.2027 17.1659 25.4085 16.8408 22.7559 16.5321L22.754 16.532C20.5926 16.2805 18.5254 16.04 16.4024 15.9953C17.9292 17.4589 19.5483 18.7396 21.2441 20.0808L21.2468 20.0831C23.3391 21.7381 25.5483 23.4855 27.8455 25.7828L25.7828 27.8455C23.5115 25.5742 21.7657 23.3686 20.1084 21.2747L20.1045 21.2693L20.1012 21.265C18.7526 19.562 17.4626 17.9329 15.9953 16.4024C16.04 18.526 16.2806 20.5939 16.5321 22.7557C16.8409 25.4084 17.1659 28.2025 17.1659 31.4147H14.2488C14.2488 28.1661 14.5753 25.3684 14.8845 22.7186L14.8851 22.7143C15.1356 20.567 15.3747 18.5168 15.4194 16.4024C13.9521 17.9329 12.6621 19.562 11.3135 21.265L11.3102 21.2693L11.3063 21.2747C9.64902 23.3686 7.90323 25.5742 5.6319 27.8455L3.56921 25.7828C5.86637 23.4855 8.07562 21.7381 10.1679 20.0831L10.1706 20.0808C11.8664 18.7396 13.4855 17.4589 15.0123 15.9953C12.8887 16.0401 10.8207 16.2807 8.65876 16.5321C6.00618 16.8408 3.21203 17.1659 0 17.1659V14.2488C3.24863 14.2488 6.0465 14.5753 8.69622 14.8846C10.8451 15.1354 12.8965 15.3747 15.0123 15.4194C13.479 13.9495 11.8467 12.6575 10.1404 11.3066C8.04633 9.6491 5.84051 7.90323 3.56921 5.6319L5.6319 3.56921C7.92883 5.86626 9.67643 8.07538 11.3313 10.1676C12.6735 11.8645 13.9547 13.4844 15.4194 15.0121C15.3747 12.8979 15.1356 10.8477 14.8851 8.70038L14.8845 8.69606Z" fill="#E8FC0F"/>
<path d="M54.3714 23.9091C52.3125 23.9091 50.6799 23.33 49.4735 22.1719C48.2671 20.9977 47.6639 19.3087 47.6639 17.1051V13.1481C47.6639 10.9444 48.2671 9.26355 49.4735 8.10542C50.6799 6.9312 52.3125 6.34409 54.3714 6.34409C56.3982 6.34409 57.9584 6.90707 59.0522 8.03303C60.1621 9.159 60.717 10.6951 60.717 12.6414V12.7862H58.1354V12.569C58.1354 11.427 57.8217 10.4941 57.1944 9.77023C56.5832 9.0464 55.6422 8.68448 54.3714 8.68448C53.0846 8.68448 52.0793 9.07857 51.3555 9.86674C50.6316 10.6388 50.2697 11.7165 50.2697 13.0999V17.1533C50.2697 18.5206 50.6316 19.5983 51.3555 20.3864C52.0793 21.1746 53.0846 21.5687 54.3714 21.5687C55.6422 21.5687 56.5832 21.2068 57.1944 20.4829C57.8217 19.743 58.1354 18.8101 58.1354 17.6841V17.274H60.717V17.6117C60.717 19.558 60.1621 21.0942 59.0522 22.2201C57.9584 23.3461 56.3982 23.9091 54.3714 23.9091ZM63.6746 23.5713V11.6763H66.1115V13.0757H66.4975C66.6905 12.5771 66.9962 12.2152 67.4144 11.99C67.8487 11.7487 68.3795 11.6281 69.0068 11.6281H70.4303V13.8719H68.9103C68.106 13.8719 67.4465 14.0971 66.9318 14.5475C66.4171 14.9818 66.1597 15.6574 66.1597 16.5742V23.5713H63.6746ZM78.1546 23.9091C76.9643 23.9091 75.9027 23.6678 74.9697 23.1852C74.0529 22.6866 73.329 21.9789 72.7982 21.062C72.2674 20.1452 72.002 19.0594 72.002 17.8048V17.4428C72.002 16.1882 72.2674 15.1105 72.7982 14.2097C73.329 13.2929 74.0529 12.5851 74.9697 12.0865C75.9027 11.5879 76.9643 11.3385 78.1546 11.3385C79.3449 11.3385 80.4065 11.5879 81.3395 12.0865C82.2724 12.5851 83.0043 13.2929 83.5351 14.2097C84.0659 15.1105 84.3313 16.1882 84.3313 17.4428V17.8048C84.3313 19.0594 84.0659 20.1452 83.5351 21.062C83.0043 21.9789 82.2724 22.6866 81.3395 23.1852C80.4065 23.6678 79.3449 23.9091 78.1546 23.9091ZM78.1546 21.6893C79.2484 21.6893 80.1331 21.3435 80.8086 20.6518C81.5003 19.9441 81.8461 18.9709 81.8461 17.7324V17.5152C81.8461 16.2767 81.5083 15.3116 80.8328 14.6199C80.1572 13.9122 79.2645 13.5583 78.1546 13.5583C77.0769 13.5583 76.1922 13.9122 75.5005 14.6199C74.825 15.3116 74.4872 16.2767 74.4872 17.5152V17.7324C74.4872 18.9709 74.825 19.9441 75.5005 20.6518C76.1922 21.3435 77.0769 21.6893 78.1546 21.6893ZM92.2991 23.9091C90.7871 23.9091 89.5324 23.5713 88.5352 22.8957C87.5379 22.2201 86.9267 21.1987 86.7015 19.8315L89.0177 19.2766C89.1464 19.936 89.3636 20.4588 89.6692 20.8449C89.9748 21.2309 90.3528 21.5043 90.8032 21.6652C91.2696 21.8261 91.7683 21.9065 92.2991 21.9065C93.0873 21.9065 93.6905 21.7537 94.1087 21.448C94.543 21.1424 94.7601 20.7483 94.7601 20.2658C94.7601 19.7832 94.5591 19.4294 94.1569 19.2042C93.7548 18.979 93.1596 18.794 92.3715 18.6492L91.5511 18.5045C90.7469 18.3597 90.015 18.1506 89.3555 17.8771C88.696 17.6037 88.1733 17.2257 87.7872 16.7431C87.4012 16.2606 87.2081 15.6413 87.2081 14.8853C87.2081 13.7593 87.6264 12.8908 88.4628 12.2795C89.2992 11.6522 90.4091 11.3385 91.7924 11.3385C93.1275 11.3385 94.2213 11.6442 95.0738 12.2554C95.9424 12.8505 96.5054 13.6628 96.7627 14.6923L94.4465 15.3437C94.3017 14.6199 93.9961 14.1132 93.5296 13.8237C93.0631 13.5181 92.4841 13.3653 91.7924 13.3653C91.1168 13.3653 90.586 13.4939 90.2 13.7513C89.8139 13.9926 89.6209 14.3384 89.6209 14.7888C89.6209 15.2714 89.8059 15.6252 90.1759 15.8504C90.5619 16.0756 91.0766 16.2445 91.72 16.3571L92.5645 16.5019C93.417 16.6466 94.1971 16.8477 94.9049 17.1051C95.6126 17.3624 96.1676 17.7324 96.5697 18.2149C96.9879 18.6975 97.197 19.3409 97.197 20.1452C97.197 21.3355 96.7547 22.2603 95.87 22.9198C94.9853 23.5793 93.795 23.9091 92.2991 23.9091ZM104.976 23.9091C103.464 23.9091 102.209 23.5713 101.212 22.8957C100.214 22.2201 99.6031 21.1987 99.3779 19.8315L101.694 19.2766C101.823 19.936 102.04 20.4588 102.346 20.8449C102.651 21.2309 103.029 21.5043 103.48 21.6652C103.946 21.8261 104.445 21.9065 104.976 21.9065C105.764 21.9065 106.367 21.7537 106.785 21.448C107.219 21.1424 107.437 20.7483 107.437 20.2658C107.437 19.7832 107.236 19.4294 106.833 19.2042C106.431 18.979 105.836 18.794 105.048 18.6492L104.228 18.5045C103.423 18.3597 102.691 18.1506 102.032 17.8771C101.373 17.6037 100.85 17.2257 100.464 16.7431C100.078 16.2606 99.8846 15.6413 99.8846 14.8853C99.8846 13.7593 100.303 12.8908 101.139 12.2795C101.976 11.6522 103.086 11.3385 104.469 11.3385C105.804 11.3385 106.898 11.6442 107.75 12.2554C108.619 12.8505 109.182 13.6628 109.439 14.6923L107.123 15.3437C106.978 14.6199 106.673 14.1132 106.206 13.8237C105.74 13.5181 105.161 13.3653 104.469 13.3653C103.793 13.3653 103.263 13.4939 102.876 13.7513C102.49 13.9926 102.297 14.3384 102.297 14.7888C102.297 15.2714 102.482 15.6252 102.852 15.8504C103.238 16.0756 103.753 16.2445 104.397 16.3571L105.241 16.5019C106.093 16.6466 106.874 16.8477 107.581 17.1051C108.289 17.3624 108.844 17.7324 109.246 18.2149C109.664 18.6975 109.874 19.3409 109.874 20.1452C109.874 21.3355 109.431 22.2603 108.546 22.9198C107.662 23.5793 106.471 23.9091 104.976 23.9091ZM118.352 23.9091C117.161 23.9091 116.1 23.6678 115.167 23.1852C114.25 22.6866 113.526 21.9789 112.995 21.062C112.465 20.1452 112.199 19.0594 112.199 17.8048V17.4428C112.199 16.1882 112.465 15.1105 112.995 14.2097C113.526 13.2929 114.25 12.5851 115.167 12.0865C116.1 11.5879 117.161 11.3385 118.352 11.3385C119.542 11.3385 120.604 11.5879 121.537 12.0865C122.47 12.5851 123.201 13.2929 123.732 14.2097C124.263 15.1105 124.528 16.1882 124.528 17.4428V17.8048C124.528 19.0594 124.263 20.1452 123.732 21.062C123.201 21.9789 122.47 22.6866 121.537 23.1852C120.604 23.6678 119.542 23.9091 118.352 23.9091ZM118.352 21.6893C119.446 21.6893 120.33 21.3435 121.006 20.6518C121.697 19.9441 122.043 18.9709 122.043 17.7324V17.5152C122.043 16.2767 121.706 15.3116 121.03 14.6199C120.354 13.9122 119.462 13.5583 118.352 13.5583C117.274 13.5583 116.389 13.9122 115.698 14.6199C115.022 15.3116 114.684 16.2767 114.684 17.5152V17.7324C114.684 18.9709 115.022 19.9441 115.698 20.6518C116.389 21.3435 117.274 21.6893 118.352 21.6893ZM129.949 23.5713L125.944 11.6763H128.574L131.734 21.7376H132.12L135.281 11.6763H137.911L133.906 23.5713H129.949ZM145.351 23.9091C144.145 23.9091 143.091 23.6598 142.191 23.1611C141.29 22.6464 140.582 21.9306 140.067 21.0138C139.569 20.0808 139.319 19.0031 139.319 17.7806V17.4911C139.319 16.2525 139.569 15.1748 140.067 14.258C140.566 13.325 141.258 12.6093 142.142 12.1106C143.043 11.5959 144.081 11.3385 145.255 11.3385C146.397 11.3385 147.394 11.5959 148.247 12.1106C149.115 12.6093 149.791 13.309 150.273 14.2097C150.756 15.1105 150.997 16.1641 150.997 17.3705V18.3114H141.853C141.885 19.357 142.231 20.1934 142.89 20.8207C143.566 21.432 144.402 21.7376 145.399 21.7376C146.332 21.7376 147.032 21.5285 147.499 21.1103C147.981 20.692 148.351 20.2095 148.608 19.6626L150.659 20.7242C150.434 21.1746 150.104 21.6491 149.67 22.1478C149.252 22.6464 148.697 23.0646 148.005 23.4024C147.314 23.7402 146.429 23.9091 145.351 23.9091ZM141.877 16.4054H148.464C148.399 15.5046 148.078 14.8049 147.499 14.3062C146.92 13.7915 146.164 13.5342 145.231 13.5342C144.298 13.5342 143.534 13.7915 142.938 14.3062C142.359 14.8049 142.006 15.5046 141.877 16.4054ZM153.989 23.5713V11.6763H156.425V13.0757H156.812C157.005 12.5771 157.31 12.2152 157.728 11.99C158.163 11.7487 158.693 11.6281 159.321 11.6281H160.744V13.8719H159.224C158.42 13.8719 157.761 14.0971 157.246 14.5475C156.731 14.9818 156.474 15.6574 156.474 16.5742V23.5713H153.989Z" fill="white"/>
</svg>
