<svg width="26" height="26" viewBox="0 0 26 26" fill="none" xmlns="http://www.w3.org/2000/svg">
<path d="M13 25L12.4462 24.3836C12.1 24.0411 4 14.589 4 8.90411C4 3.9726 8.01538 0 13 0C17.9846 0 22 3.9726 22 8.90411C22 14.589 13.9 24.0411 13.5538 24.4521L13 25ZM13 1.36986C8.77692 1.36986 5.38462 4.72603 5.38462 8.90411C5.38462 13.2877 11.2 20.6849 13 22.8767C14.8 20.6849 20.6154 13.2877 20.6154 8.90411C20.6154 4.72603 17.2231 1.36986 13 1.36986Z" fill="#E8FC0F"/>
<path d="M13 12C11.32 12 10 10.68 10 9C10 7.32 11.32 6 13 6C14.68 6 16 7.32 16 9C16 10.68 14.68 12 13 12ZM13 7.2C11.98 7.2 11.2 7.98 11.2 9C11.2 10.02 11.98 10.8 13 10.8C14.02 10.8 14.8 10.02 14.8 9C14.8 7.98 14.02 7.2 13 7.2Z" fill="#E8FC0F"/>
</svg>
