<svg width="26" height="26" viewBox="0 0 26 26" fill="none" xmlns="http://www.w3.org/2000/svg">
<path d="M21.9375 13.6175V12.3744L23.4975 11.0094C23.7851 10.7559 23.9738 10.409 24.0303 10.0299C24.0868 9.65072 24.0074 9.26381 23.8063 8.93752L21.8888 5.68753C21.7463 5.44074 21.5414 5.23576 21.2947 5.09315C21.048 4.95054 20.7681 4.87532 20.4831 4.87503C20.3065 4.87367 20.1309 4.90112 19.9631 4.95628L17.9888 5.62253C17.6479 5.39601 17.2923 5.19243 16.9244 5.01315L16.51 2.96565C16.4357 2.59158 16.2322 2.25556 15.9351 2.01641C15.6381 1.77726 15.2663 1.65022 14.885 1.65753H11.0825C10.7012 1.65022 10.3295 1.77726 10.0324 2.01641C9.73532 2.25556 9.53182 2.59158 9.45752 2.96565L9.04315 5.01315C8.67259 5.19239 8.31431 5.39596 7.97065 5.62253L6.0369 4.92378C5.86733 4.87959 5.69173 4.86313 5.5169 4.87503C5.23193 4.87532 4.95206 4.95054 4.70534 5.09315C4.45863 5.23576 4.25375 5.44074 4.11127 5.68753L2.19377 8.93752C2.00412 9.26333 1.93365 9.64493 1.99442 10.017C2.0552 10.389 2.24343 10.7284 2.5269 10.9769L4.06252 12.3825V13.6257L2.5269 14.9907C2.23543 15.2409 2.04204 15.5863 1.98106 15.9656C1.92007 16.3449 1.99544 16.7335 2.19377 17.0625L4.11127 20.3125C4.25375 20.5593 4.45863 20.7643 4.70534 20.9069C4.95206 21.0495 5.23193 21.1247 5.5169 21.125C5.69349 21.1264 5.86913 21.0989 6.0369 21.0438L8.01127 20.3775C8.35215 20.604 8.70773 20.8076 9.07565 20.9869L9.49002 23.0344C9.56432 23.4085 9.76782 23.7445 10.0649 23.9836C10.362 24.2228 10.7337 24.3498 11.115 24.3425H14.95C15.3313 24.3498 15.7031 24.2228 16.0001 23.9836C16.2972 23.7445 16.5007 23.4085 16.575 23.0344L16.9894 20.9869C17.36 20.8077 17.7182 20.6041 18.0619 20.3775L20.0281 21.0438C20.1959 21.0989 20.3715 21.1264 20.5481 21.125C20.8331 21.1247 21.113 21.0495 21.3597 20.9069C21.6064 20.7643 21.8113 20.5593 21.9538 20.3125L23.8063 17.0625C23.9959 16.7367 24.0664 16.3551 24.0056 15.9831C23.9448 15.611 23.7566 15.2717 23.4731 15.0231L21.9375 13.6175ZM20.4831 19.5L17.6963 18.5575C17.0439 19.1101 16.2983 19.5421 15.4944 19.8331L14.9175 22.75H11.0825L10.5056 19.8657C9.70812 19.5663 8.96654 19.1351 8.3119 18.59L5.5169 19.5L3.5994 16.25L5.8094 14.3C5.65916 13.459 5.65916 12.598 5.8094 11.7569L3.5994 9.75002L5.5169 6.50003L8.30377 7.44253C8.95616 6.88994 9.70176 6.45798 10.5056 6.1669L11.0825 3.25003H14.9175L15.4944 6.1344C16.2919 6.43374 17.0335 6.86495 17.6881 7.41003L20.4831 6.50003L22.4006 9.75002L20.1906 11.7C20.3409 12.5411 20.3409 13.4021 20.1906 14.2432L22.4006 16.25L20.4831 19.5Z" fill="white"/>
<path d="M13 17.875C12.0358 17.875 11.0933 17.5891 10.2916 17.0534C9.48991 16.5177 8.86507 15.7564 8.49609 14.8656C8.12711 13.9748 8.03057 12.9946 8.21867 12.0489C8.40678 11.1033 8.87108 10.2346 9.55286 9.55286C10.2346 8.87108 11.1033 8.40678 12.0489 8.21867C12.9946 8.03057 13.9748 8.12711 14.8656 8.49609C15.7564 8.86507 16.5177 9.48991 17.0534 10.2916C17.5891 11.0933 17.875 12.0358 17.875 13C17.8815 13.642 17.7599 14.2789 17.5172 14.8733C17.2745 15.4677 16.9157 16.0077 16.4617 16.4617C16.0077 16.9157 15.4677 17.2745 14.8733 17.5172C14.2789 17.7599 13.642 17.8815 13 17.875ZM13 9.75C12.5705 9.74 12.1434 9.81722 11.7445 9.97701C11.3457 10.1368 10.9834 10.3758 10.6796 10.6796C10.3758 10.9834 10.1368 11.3457 9.97701 11.7445C9.81722 12.1434 9.74 12.5705 9.75 13C9.74 13.4295 9.81722 13.8566 9.97701 14.2555C10.1368 14.6543 10.3758 15.0166 10.6796 15.3204C10.9834 15.6242 11.3457 15.8632 11.7445 16.023C12.1434 16.1828 12.5705 16.26 13 16.25C13.4295 16.26 13.8566 16.1828 14.2555 16.023C14.6543 15.8632 15.0166 15.6242 15.3204 15.3204C15.6242 15.0166 15.8632 14.6543 16.023 14.2555C16.1828 13.8566 16.26 13.4295 16.25 13C16.26 12.5705 16.1828 12.1434 16.023 11.7445C15.8632 11.3457 15.6242 10.9834 15.3204 10.6796C15.0166 10.3758 14.6543 10.1368 14.2555 9.97701C13.8566 9.81722 13.4295 9.74 13 9.75Z" fill="white"/>
</svg>
