<svg width="26" height="26" viewBox="0 0 26 26" fill="none" xmlns="http://www.w3.org/2000/svg">
<path d="M13.5304 2.18063C13.3766 2.06357 13.1872 2 12.9922 2C12.7972 2 12.6078 2.06357 12.454 2.18063L0 11.662L1.07727 12.9922L2.6 11.8329V22.3077C2.60092 22.7562 2.78383 23.1862 3.10869 23.5033C3.43356 23.8205 3.87391 23.9991 4.33333 24H21.6667C22.1261 23.9991 22.5664 23.8205 22.8913 23.5033C23.2162 23.1862 23.3991 22.7562 23.4 22.3077V11.8405L24.9227 12.9998L26 11.6696L13.5304 2.18063ZM16.4667 22.3077C13 22.3077 11.2667 22.3081 9.53333 22.3077H4.33333V10.5137L13 3.92205L21.6667 10.5222V22.3077H16.4667Z" fill="#E8FC0F"/>
</svg>
